<svg xmlns="http://www.w3.org/2000/svg" width="46.449" height="50.442" viewBox="0 0 46.449 50.442">
  <path id="R6" d="M28.5,39.411c-3.153-1.261-3.678-2.417-3.678-3.678a4.827,4.827,0,0,1,1.892-3.363,8.575,8.575,0,0,0,2.732-6.726c0-4.939-3.048-8.933-8.722-8.933S12,20.706,12,25.645a8.575,8.575,0,0,0,2.732,6.726,4.827,4.827,0,0,1,1.892,3.363c0,1.261-.525,2.417-3.678,3.678C8.319,41.3,3.905,43.4,3.8,47.4a5.245,5.245,0,0,0,4.939,5.044h24.17A4.892,4.892,0,0,0,37.638,47.5c-.105-3.993-4.519-6.2-9.143-8.092ZM46.571,19.865A14.263,14.263,0,0,0,32.384,5.678V2L25.238,7.78a.832.832,0,0,0,.105,1.156l7.041,5.675V10.933a8.925,8.925,0,0,1,8.933,8.933H37.638l5.78,7.146a.825.825,0,0,0,1.156,0l5.675-7.146H46.571Z" transform="translate(-3.8 -2)" fill="#11556b"/>
</svg>
